<?xml version="1.0" encoding="utf-8" standalone="no"?>
<!DOCTYPE svg PUBLIC "-//W3C//DTD SVG 1.1//EN"
  "http://www.w3.org/Graphics/SVG/1.1/DTD/svg11.dtd">
<!-- Created with matplotlib (http://matplotlib.sourceforge.net/) -->
<svg height="611pt" version="1.1" viewBox="0 0 1229 611" width="1229pt" xmlns="http://www.w3.org/2000/svg" xmlns:xlink="http://www.w3.org/1999/xlink">
 <defs>
  <style type="text/css">
*{stroke-linecap:square;stroke-linejoin:round;}
  </style>
 </defs>
 <g id="figure_1">
  <g id="patch_1">
   <path d="
M0 611.1
L1229.4 611.1
L1229.4 0
L0 0
z
" style="fill:#ffffff;"/>
  </g>
  <g id="axes_1">
   <g id="patch_2">
    <path d="
M153.675 549.99
L1106.46 549.99
L1106.46 61.11
L153.675 61.11
z
" style="fill:#eeeeee;"/>
   </g>
   <g id="matplotlib.axis_1">
    <g id="xtick_1">
     <g id="line2d_1">
      <path clip-path="url(#p32c9f7e71b)" d="
M336.903 549.99
L336.903 61.11" style="fill:none;stroke:#000000;stroke-dasharray:1.000000,3.000000;stroke-dashoffset:0.0;stroke-linecap:butt;stroke-width:0.5;"/>
     </g>
     <g id="line2d_2">
      <defs>
       <path d="
M0 0
L0 0" id="md8e084be14" style="stroke:#555555;stroke-linecap:butt;stroke-width:0.5;"/>
      </defs>
      <g>
       <use style="fill:#555555;stroke:#555555;stroke-linecap:butt;stroke-width:0.5;" x="336.902884615" xlink:href="#md8e084be14" y="549.99"/>
      </g>
     </g>
     <g id="line2d_3">
      <g>
       <use style="fill:#555555;stroke:#555555;stroke-linecap:butt;stroke-width:0.5;" x="336.902884615" xlink:href="#md8e084be14" y="61.11"/>
      </g>
     </g>
     <g id="text_1">
      <!-- 2013-Diciembre -->
      <defs>
       <path d="
M19.1875 8.29688
L53.6094 8.29688
L53.6094 0
L7.32812 0
L7.32812 8.29688
Q12.9375 14.1094 22.625 23.8906
Q32.3281 33.6875 34.8125 36.5312
Q39.5469 41.8438 41.4219 45.5312
Q43.3125 49.2188 43.3125 52.7812
Q43.3125 58.5938 39.2344 62.25
Q35.1562 65.9219 28.6094 65.9219
Q23.9688 65.9219 18.8125 64.3125
Q13.6719 62.7031 7.8125 59.4219
L7.8125 69.3906
Q13.7656 71.7812 18.9375 73
Q24.125 74.2188 28.4219 74.2188
Q39.75 74.2188 46.4844 68.5469
Q53.2188 62.8906 53.2188 53.4219
Q53.2188 48.9219 51.5312 44.8906
Q49.8594 40.875 45.4062 35.4062
Q44.1875 33.9844 37.6406 27.2188
Q31.1094 20.4531 19.1875 8.29688" id="BitstreamVeraSans-Roman-32"/>
       <path d="
M40.5781 39.3125
Q47.6562 37.7969 51.625 33
Q55.6094 28.2188 55.6094 21.1875
Q55.6094 10.4062 48.1875 4.48438
Q40.7656 -1.42188 27.0938 -1.42188
Q22.5156 -1.42188 17.6562 -0.515625
Q12.7969 0.390625 7.625 2.20312
L7.625 11.7188
Q11.7188 9.32812 16.5938 8.10938
Q21.4844 6.89062 26.8125 6.89062
Q36.0781 6.89062 40.9375 10.5469
Q45.7969 14.2031 45.7969 21.1875
Q45.7969 27.6406 41.2812 31.2656
Q36.7656 34.9062 28.7188 34.9062
L20.2188 34.9062
L20.2188 43.0156
L29.1094 43.0156
Q36.375 43.0156 40.2344 45.9219
Q44.0938 48.8281 44.0938 54.2969
Q44.0938 59.9062 40.1094 62.9062
Q36.1406 65.9219 28.7188 65.9219
Q24.6562 65.9219 20.0156 65.0312
Q15.375 64.1562 9.8125 62.3125
L9.8125 71.0938
Q15.4375 72.6562 20.3438 73.4375
Q25.25 74.2188 29.5938 74.2188
Q40.8281 74.2188 47.3594 69.1094
Q53.9062 64.0156 53.9062 55.3281
Q53.9062 49.2656 50.4375 45.0938
Q46.9688 40.9219 40.5781 39.3125" id="BitstreamVeraSans-Roman-33"/>
       <path d="
M31.7812 66.4062
Q24.1719 66.4062 20.3281 58.9062
Q16.5 51.4219 16.5 36.375
Q16.5 21.3906 20.3281 13.8906
Q24.1719 6.39062 31.7812 6.39062
Q39.4531 6.39062 43.2812 13.8906
Q47.125 21.3906 47.125 36.375
Q47.125 51.4219 43.2812 58.9062
Q39.4531 66.4062 31.7812 66.4062
M31.7812 74.2188
Q44.0469 74.2188 50.5156 64.5156
Q56.9844 54.8281 56.9844 36.375
Q56.9844 17.9688 50.5156 8.26562
Q44.0469 -1.42188 31.7812 -1.42188
Q19.5312 -1.42188 13.0625 8.26562
Q6.59375 17.9688 6.59375 36.375
Q6.59375 54.8281 13.0625 64.5156
Q19.5312 74.2188 31.7812 74.2188" id="BitstreamVeraSans-Roman-30"/>
       <path d="
M12.4062 8.29688
L28.5156 8.29688
L28.5156 63.9219
L10.9844 60.4062
L10.9844 69.3906
L28.4219 72.9062
L38.2812 72.9062
L38.2812 8.29688
L54.3906 8.29688
L54.3906 0
L12.4062 0
z
" id="BitstreamVeraSans-Roman-31"/>
       <path d="
M52 44.1875
Q55.375 50.25 60.0625 53.125
Q64.75 56 71.0938 56
Q79.6406 56 84.2812 50.0156
Q88.9219 44.0469 88.9219 33.0156
L88.9219 0
L79.8906 0
L79.8906 32.7188
Q79.8906 40.5781 77.0938 44.375
Q74.3125 48.1875 68.6094 48.1875
Q61.625 48.1875 57.5625 43.5469
Q53.5156 38.9219 53.5156 30.9062
L53.5156 0
L44.4844 0
L44.4844 32.7188
Q44.4844 40.625 41.7031 44.4062
Q38.9219 48.1875 33.1094 48.1875
Q26.2188 48.1875 22.1562 43.5312
Q18.1094 38.875 18.1094 30.9062
L18.1094 0
L9.07812 0
L9.07812 54.6875
L18.1094 54.6875
L18.1094 46.1875
Q21.1875 51.2188 25.4844 53.6094
Q29.7812 56 35.6875 56
Q41.6562 56 45.8281 52.9688
Q50 49.9531 52 44.1875" id="BitstreamVeraSans-Roman-6d"/>
       <path d="
M19.6719 64.7969
L19.6719 8.10938
L31.5938 8.10938
Q46.6875 8.10938 53.6875 14.9375
Q60.6875 21.7812 60.6875 36.5312
Q60.6875 51.1719 53.6875 57.9844
Q46.6875 64.7969 31.5938 64.7969
z

M9.8125 72.9062
L30.0781 72.9062
Q51.2656 72.9062 61.1719 64.0938
Q71.0938 55.2812 71.0938 36.5312
Q71.0938 17.6719 61.125 8.82812
Q51.1719 0 30.0781 0
L9.8125 0
z
" id="BitstreamVeraSans-Roman-44"/>
       <path d="
M9.42188 54.6875
L18.4062 54.6875
L18.4062 0
L9.42188 0
z

M9.42188 75.9844
L18.4062 75.9844
L18.4062 64.5938
L9.42188 64.5938
z
" id="BitstreamVeraSans-Roman-69"/>
       <path d="
M4.89062 31.3906
L31.2031 31.3906
L31.2031 23.3906
L4.89062 23.3906
z
" id="BitstreamVeraSans-Roman-2d"/>
       <path d="
M56.2031 29.5938
L56.2031 25.2031
L14.8906 25.2031
Q15.4844 15.9219 20.4844 11.0625
Q25.4844 6.20312 34.4219 6.20312
Q39.5938 6.20312 44.4531 7.46875
Q49.3125 8.73438 54.1094 11.2812
L54.1094 2.78125
Q49.2656 0.734375 44.1875 -0.34375
Q39.1094 -1.42188 33.8906 -1.42188
Q20.7969 -1.42188 13.1562 6.1875
Q5.51562 13.8125 5.51562 26.8125
Q5.51562 40.2344 12.7656 48.1094
Q20.0156 56 32.3281 56
Q43.3594 56 49.7812 48.8906
Q56.2031 41.7969 56.2031 29.5938
M47.2188 32.2344
Q47.125 39.5938 43.0938 43.9844
Q39.0625 48.3906 32.4219 48.3906
Q24.9062 48.3906 20.3906 44.1406
Q15.875 39.8906 15.1875 32.1719
z
" id="BitstreamVeraSans-Roman-65"/>
       <path d="
M41.1094 46.2969
Q39.5938 47.1719 37.8125 47.5781
Q36.0312 48 33.8906 48
Q26.2656 48 22.1875 43.0469
Q18.1094 38.0938 18.1094 28.8125
L18.1094 0
L9.07812 0
L9.07812 54.6875
L18.1094 54.6875
L18.1094 46.1875
Q20.9531 51.1719 25.4844 53.5781
Q30.0312 56 36.5312 56
Q37.4531 56 38.5781 55.875
Q39.7031 55.7656 41.0625 55.5156
z
" id="BitstreamVeraSans-Roman-72"/>
       <path d="
M48.7812 52.5938
L48.7812 44.1875
Q44.9688 46.2969 41.1406 47.3438
Q37.3125 48.3906 33.4062 48.3906
Q24.6562 48.3906 19.8125 42.8438
Q14.9844 37.3125 14.9844 27.2969
Q14.9844 17.2812 19.8125 11.7344
Q24.6562 6.20312 33.4062 6.20312
Q37.3125 6.20312 41.1406 7.25
Q44.9688 8.29688 48.7812 10.4062
L48.7812 2.09375
Q45.0156 0.34375 40.9844 -0.53125
Q36.9688 -1.42188 32.4219 -1.42188
Q20.0625 -1.42188 12.7812 6.34375
Q5.51562 14.1094 5.51562 27.2969
Q5.51562 40.6719 12.8594 48.3281
Q20.2188 56 33.0156 56
Q37.1562 56 41.1094 55.1406
Q45.0625 54.2969 48.7812 52.5938" id="BitstreamVeraSans-Roman-63"/>
       <path d="
M48.6875 27.2969
Q48.6875 37.2031 44.6094 42.8438
Q40.5312 48.4844 33.4062 48.4844
Q26.2656 48.4844 22.1875 42.8438
Q18.1094 37.2031 18.1094 27.2969
Q18.1094 17.3906 22.1875 11.75
Q26.2656 6.10938 33.4062 6.10938
Q40.5312 6.10938 44.6094 11.75
Q48.6875 17.3906 48.6875 27.2969
M18.1094 46.3906
Q20.9531 51.2656 25.2656 53.625
Q29.5938 56 35.5938 56
Q45.5625 56 51.7812 48.0938
Q58.0156 40.1875 58.0156 27.2969
Q58.0156 14.4062 51.7812 6.48438
Q45.5625 -1.42188 35.5938 -1.42188
Q29.5938 -1.42188 25.2656 0.953125
Q20.9531 3.32812 18.1094 8.20312
L18.1094 0
L9.07812 0
L9.07812 75.9844
L18.1094 75.9844
z
" id="BitstreamVeraSans-Roman-62"/>
      </defs>
      <g style="fill:#555555;" transform="translate(297.488822115 563.5884375)scale(0.1 -0.1)">
       <use xlink:href="#BitstreamVeraSans-Roman-32"/>
       <use x="63.623046875" xlink:href="#BitstreamVeraSans-Roman-30"/>
       <use x="127.24609375" xlink:href="#BitstreamVeraSans-Roman-31"/>
       <use x="190.869140625" xlink:href="#BitstreamVeraSans-Roman-33"/>
       <use x="254.4921875" xlink:href="#BitstreamVeraSans-Roman-2d"/>
       <use x="290.576171875" xlink:href="#BitstreamVeraSans-Roman-44"/>
       <use x="367.578125" xlink:href="#BitstreamVeraSans-Roman-69"/>
       <use x="395.361328125" xlink:href="#BitstreamVeraSans-Roman-63"/>
       <use x="450.341796875" xlink:href="#BitstreamVeraSans-Roman-69"/>
       <use x="478.125" xlink:href="#BitstreamVeraSans-Roman-65"/>
       <use x="539.6484375" xlink:href="#BitstreamVeraSans-Roman-6d"/>
       <use x="637.060546875" xlink:href="#BitstreamVeraSans-Roman-62"/>
       <use x="700.537109375" xlink:href="#BitstreamVeraSans-Roman-72"/>
       <use x="739.400390625" xlink:href="#BitstreamVeraSans-Roman-65"/>
      </g>
     </g>
    </g>
    <g id="xtick_2">
     <g id="line2d_4">
      <path clip-path="url(#p32c9f7e71b)" d="
M630.067 549.99
L630.067 61.11" style="fill:none;stroke:#000000;stroke-dasharray:1.000000,3.000000;stroke-dashoffset:0.0;stroke-linecap:butt;stroke-width:0.5;"/>
     </g>
     <g id="line2d_5">
      <g>
       <use style="fill:#555555;stroke:#555555;stroke-linecap:butt;stroke-width:0.5;" x="630.0675" xlink:href="#md8e084be14" y="549.99"/>
      </g>
     </g>
     <g id="line2d_6">
      <g>
       <use style="fill:#555555;stroke:#555555;stroke-linecap:butt;stroke-width:0.5;" x="630.0675" xlink:href="#md8e084be14" y="61.11"/>
      </g>
     </g>
     <g id="text_2">
      <!-- 2014-Febrero -->
      <defs>
       <path d="
M9.8125 72.9062
L51.7031 72.9062
L51.7031 64.5938
L19.6719 64.5938
L19.6719 43.1094
L48.5781 43.1094
L48.5781 34.8125
L19.6719 34.8125
L19.6719 0
L9.8125 0
z
" id="BitstreamVeraSans-Roman-46"/>
       <path d="
M30.6094 48.3906
Q23.3906 48.3906 19.1875 42.75
Q14.9844 37.1094 14.9844 27.2969
Q14.9844 17.4844 19.1562 11.8438
Q23.3438 6.20312 30.6094 6.20312
Q37.7969 6.20312 41.9844 11.8594
Q46.1875 17.5312 46.1875 27.2969
Q46.1875 37.0156 41.9844 42.7031
Q37.7969 48.3906 30.6094 48.3906
M30.6094 56
Q42.3281 56 49.0156 48.375
Q55.7188 40.7656 55.7188 27.2969
Q55.7188 13.875 49.0156 6.21875
Q42.3281 -1.42188 30.6094 -1.42188
Q18.8438 -1.42188 12.1719 6.21875
Q5.51562 13.875 5.51562 27.2969
Q5.51562 40.7656 12.1719 48.375
Q18.8438 56 30.6094 56" id="BitstreamVeraSans-Roman-6f"/>
       <path d="
M37.7969 64.3125
L12.8906 25.3906
L37.7969 25.3906
z

M35.2031 72.9062
L47.6094 72.9062
L47.6094 25.3906
L58.0156 25.3906
L58.0156 17.1875
L47.6094 17.1875
L47.6094 0
L37.7969 0
L37.7969 17.1875
L4.89062 17.1875
L4.89062 26.7031
z
" id="BitstreamVeraSans-Roman-34"/>
      </defs>
      <g style="fill:#555555;" transform="translate(597.305 563.5884375)scale(0.1 -0.1)">
       <use xlink:href="#BitstreamVeraSans-Roman-32"/>
       <use x="63.623046875" xlink:href="#BitstreamVeraSans-Roman-30"/>
       <use x="127.24609375" xlink:href="#BitstreamVeraSans-Roman-31"/>
       <use x="190.869140625" xlink:href="#BitstreamVeraSans-Roman-34"/>
       <use x="254.4921875" xlink:href="#BitstreamVeraSans-Roman-2d"/>
       <use x="290.576171875" xlink:href="#BitstreamVeraSans-Roman-46"/>
       <use x="342.595703125" xlink:href="#BitstreamVeraSans-Roman-65"/>
       <use x="404.119140625" xlink:href="#BitstreamVeraSans-Roman-62"/>
       <use x="467.595703125" xlink:href="#BitstreamVeraSans-Roman-72"/>
       <use x="506.458984375" xlink:href="#BitstreamVeraSans-Roman-65"/>
       <use x="567.982421875" xlink:href="#BitstreamVeraSans-Roman-72"/>
       <use x="606.845703125" xlink:href="#BitstreamVeraSans-Roman-6f"/>
      </g>
     </g>
    </g>
    <g id="xtick_3">
     <g id="line2d_7">
      <path clip-path="url(#p32c9f7e71b)" d="
M923.232 549.99
L923.232 61.11" style="fill:none;stroke:#000000;stroke-dasharray:1.000000,3.000000;stroke-dashoffset:0.0;stroke-linecap:butt;stroke-width:0.5;"/>
     </g>
     <g id="line2d_8">
      <g>
       <use style="fill:#555555;stroke:#555555;stroke-linecap:butt;stroke-width:0.5;" x="923.232115385" xlink:href="#md8e084be14" y="549.99"/>
      </g>
     </g>
     <g id="line2d_9">
      <g>
       <use style="fill:#555555;stroke:#555555;stroke-linecap:butt;stroke-width:0.5;" x="923.232115385" xlink:href="#md8e084be14" y="61.11"/>
      </g>
     </g>
     <g id="text_3">
      <!-- 2014-Junio -->
      <defs>
       <path d="
M54.8906 33.0156
L54.8906 0
L45.9062 0
L45.9062 32.7188
Q45.9062 40.4844 42.875 44.3281
Q39.8438 48.1875 33.7969 48.1875
Q26.5156 48.1875 22.3125 43.5469
Q18.1094 38.9219 18.1094 30.9062
L18.1094 0
L9.07812 0
L9.07812 54.6875
L18.1094 54.6875
L18.1094 46.1875
Q21.3438 51.125 25.7031 53.5625
Q30.0781 56 35.7969 56
Q45.2188 56 50.0469 50.1719
Q54.8906 44.3438 54.8906 33.0156" id="BitstreamVeraSans-Roman-6e"/>
       <path d="
M8.5 21.5781
L8.5 54.6875
L17.4844 54.6875
L17.4844 21.9219
Q17.4844 14.1562 20.5 10.2656
Q23.5312 6.39062 29.5938 6.39062
Q36.8594 6.39062 41.0781 11.0312
Q45.3125 15.6719 45.3125 23.6875
L45.3125 54.6875
L54.2969 54.6875
L54.2969 0
L45.3125 0
L45.3125 8.40625
Q42.0469 3.42188 37.7188 1
Q33.4062 -1.42188 27.6875 -1.42188
Q18.2656 -1.42188 13.375 4.4375
Q8.5 10.2969 8.5 21.5781" id="BitstreamVeraSans-Roman-75"/>
       <path d="
M9.8125 72.9062
L19.6719 72.9062
L19.6719 5.07812
Q19.6719 -8.10938 14.6719 -14.0625
Q9.67188 -20.0156 -1.42188 -20.0156
L-5.17188 -20.0156
L-5.17188 -11.7188
L-2.09375 -11.7188
Q4.4375 -11.7188 7.125 -8.04688
Q9.8125 -4.39062 9.8125 5.07812
z
" id="BitstreamVeraSans-Roman-4a"/>
      </defs>
      <g style="fill:#555555;" transform="translate(896.800865385 563.5884375)scale(0.1 -0.1)">
       <use xlink:href="#BitstreamVeraSans-Roman-32"/>
       <use x="63.623046875" xlink:href="#BitstreamVeraSans-Roman-30"/>
       <use x="127.24609375" xlink:href="#BitstreamVeraSans-Roman-31"/>
       <use x="190.869140625" xlink:href="#BitstreamVeraSans-Roman-34"/>
       <use x="254.4921875" xlink:href="#BitstreamVeraSans-Roman-2d"/>
       <use x="296.201171875" xlink:href="#BitstreamVeraSans-Roman-4a"/>
       <use x="325.693359375" xlink:href="#BitstreamVeraSans-Roman-75"/>
       <use x="389.072265625" xlink:href="#BitstreamVeraSans-Roman-6e"/>
       <use x="452.451171875" xlink:href="#BitstreamVeraSans-Roman-69"/>
       <use x="480.234375" xlink:href="#BitstreamVeraSans-Roman-6f"/>
      </g>
     </g>
    </g>
    <g id="text_4">
     <!-- Fecha -->
     <defs>
      <path d="
M34.2812 27.4844
Q23.3906 27.4844 19.1875 25
Q14.9844 22.5156 14.9844 16.5
Q14.9844 11.7188 18.1406 8.90625
Q21.2969 6.10938 26.7031 6.10938
Q34.1875 6.10938 38.7031 11.4062
Q43.2188 16.7031 43.2188 25.4844
L43.2188 27.4844
z

M52.2031 31.2031
L52.2031 0
L43.2188 0
L43.2188 8.29688
Q40.1406 3.32812 35.5469 0.953125
Q30.9531 -1.42188 24.3125 -1.42188
Q15.9219 -1.42188 10.9531 3.29688
Q6 8.01562 6 15.9219
Q6 25.1406 12.1719 29.8281
Q18.3594 34.5156 30.6094 34.5156
L43.2188 34.5156
L43.2188 35.4062
Q43.2188 41.6094 39.1406 45
Q35.0625 48.3906 27.6875 48.3906
Q23 48.3906 18.5469 47.2656
Q14.1094 46.1406 10.0156 43.8906
L10.0156 52.2031
Q14.9375 54.1094 19.5781 55.0469
Q24.2188 56 28.6094 56
Q40.4844 56 46.3438 49.8438
Q52.2031 43.7031 52.2031 31.2031" id="BitstreamVeraSans-Roman-61"/>
      <path d="
M54.8906 33.0156
L54.8906 0
L45.9062 0
L45.9062 32.7188
Q45.9062 40.4844 42.875 44.3281
Q39.8438 48.1875 33.7969 48.1875
Q26.5156 48.1875 22.3125 43.5469
Q18.1094 38.9219 18.1094 30.9062
L18.1094 0
L9.07812 0
L9.07812 75.9844
L18.1094 75.9844
L18.1094 46.1875
Q21.3438 51.125 25.7031 53.5625
Q30.0781 56 35.7969 56
Q45.2188 56 50.0469 50.1719
Q54.8906 44.3438 54.8906 33.0156" id="BitstreamVeraSans-Roman-68"/>
     </defs>
     <g style="fill:#555555;" transform="translate(613.6096875 579.708125)scale(0.12 -0.12)">
      <use xlink:href="#BitstreamVeraSans-Roman-46"/>
      <use x="52.01953125" xlink:href="#BitstreamVeraSans-Roman-65"/>
      <use x="113.54296875" xlink:href="#BitstreamVeraSans-Roman-63"/>
      <use x="168.5234375" xlink:href="#BitstreamVeraSans-Roman-68"/>
      <use x="231.90234375" xlink:href="#BitstreamVeraSans-Roman-61"/>
     </g>
    </g>
   </g>
   <g id="matplotlib.axis_2">
    <g id="ytick_1">
     <g id="line2d_10">
      <path clip-path="url(#p32c9f7e71b)" d="
M153.675 549.99
L1106.46 549.99" style="fill:none;stroke:#000000;stroke-dasharray:1.000000,3.000000;stroke-dashoffset:0.0;stroke-linecap:butt;stroke-width:0.5;"/>
     </g>
     <g id="line2d_11">
      <g>
       <use style="fill:#555555;stroke:#555555;stroke-linecap:butt;stroke-width:0.5;" x="153.675" xlink:href="#md8e084be14" y="549.99"/>
      </g>
     </g>
     <g id="line2d_12">
      <g>
       <use style="fill:#555555;stroke:#555555;stroke-linecap:butt;stroke-width:0.5;" x="1106.46" xlink:href="#md8e084be14" y="549.99"/>
      </g>
     </g>
     <g id="text_5">
      <!-- 0 -->
      <g style="fill:#555555;" transform="translate(142.6359375 553.62984375)scale(0.1 -0.1)">
       <use xlink:href="#BitstreamVeraSans-Roman-30"/>
      </g>
     </g>
    </g>
    <g id="ytick_2">
     <g id="line2d_13">
      <path clip-path="url(#p32c9f7e71b)" d="
M153.675 452.214
L1106.46 452.214" style="fill:none;stroke:#000000;stroke-dasharray:1.000000,3.000000;stroke-dashoffset:0.0;stroke-linecap:butt;stroke-width:0.5;"/>
     </g>
     <g id="line2d_14">
      <g>
       <use style="fill:#555555;stroke:#555555;stroke-linecap:butt;stroke-width:0.5;" x="153.675" xlink:href="#md8e084be14" y="452.214"/>
      </g>
     </g>
     <g id="line2d_15">
      <g>
       <use style="fill:#555555;stroke:#555555;stroke-linecap:butt;stroke-width:0.5;" x="1106.46" xlink:href="#md8e084be14" y="452.214"/>
      </g>
     </g>
     <g id="text_6">
      <!-- 500 -->
      <defs>
       <path d="
M10.7969 72.9062
L49.5156 72.9062
L49.5156 64.5938
L19.8281 64.5938
L19.8281 46.7344
Q21.9688 47.4688 24.1094 47.8281
Q26.2656 48.1875 28.4219 48.1875
Q40.625 48.1875 47.75 41.5
Q54.8906 34.8125 54.8906 23.3906
Q54.8906 11.625 47.5625 5.09375
Q40.2344 -1.42188 26.9062 -1.42188
Q22.3125 -1.42188 17.5469 -0.640625
Q12.7969 0.140625 7.71875 1.70312
L7.71875 11.625
Q12.1094 9.23438 16.7969 8.0625
Q21.4844 6.89062 26.7031 6.89062
Q35.1562 6.89062 40.0781 11.3281
Q45.0156 15.7656 45.0156 23.3906
Q45.0156 31 40.0781 35.4375
Q35.1562 39.8906 26.7031 39.8906
Q22.75 39.8906 18.8125 39.0156
Q14.8906 38.1406 10.7969 36.2812
z
" id="BitstreamVeraSans-Roman-35"/>
      </defs>
      <g style="fill:#555555;" transform="translate(130.0234375 455.85384375)scale(0.1 -0.1)">
       <use xlink:href="#BitstreamVeraSans-Roman-35"/>
       <use x="63.623046875" xlink:href="#BitstreamVeraSans-Roman-30"/>
       <use x="127.24609375" xlink:href="#BitstreamVeraSans-Roman-30"/>
      </g>
     </g>
    </g>
    <g id="ytick_3">
     <g id="line2d_16">
      <path clip-path="url(#p32c9f7e71b)" d="
M153.675 354.438
L1106.46 354.438" style="fill:none;stroke:#000000;stroke-dasharray:1.000000,3.000000;stroke-dashoffset:0.0;stroke-linecap:butt;stroke-width:0.5;"/>
     </g>
     <g id="line2d_17">
      <g>
       <use style="fill:#555555;stroke:#555555;stroke-linecap:butt;stroke-width:0.5;" x="153.675" xlink:href="#md8e084be14" y="354.438"/>
      </g>
     </g>
     <g id="line2d_18">
      <g>
       <use style="fill:#555555;stroke:#555555;stroke-linecap:butt;stroke-width:0.5;" x="1106.46" xlink:href="#md8e084be14" y="354.438"/>
      </g>
     </g>
     <g id="text_7">
      <!-- 1000 -->
      <g style="fill:#555555;" transform="translate(123.9875 358.07784375)scale(0.1 -0.1)">
       <use xlink:href="#BitstreamVeraSans-Roman-31"/>
       <use x="63.623046875" xlink:href="#BitstreamVeraSans-Roman-30"/>
       <use x="127.24609375" xlink:href="#BitstreamVeraSans-Roman-30"/>
       <use x="190.869140625" xlink:href="#BitstreamVeraSans-Roman-30"/>
      </g>
     </g>
    </g>
    <g id="ytick_4">
     <g id="line2d_19">
      <path clip-path="url(#p32c9f7e71b)" d="
M153.675 256.662
L1106.46 256.662" style="fill:none;stroke:#000000;stroke-dasharray:1.000000,3.000000;stroke-dashoffset:0.0;stroke-linecap:butt;stroke-width:0.5;"/>
     </g>
     <g id="line2d_20">
      <g>
       <use style="fill:#555555;stroke:#555555;stroke-linecap:butt;stroke-width:0.5;" x="153.675" xlink:href="#md8e084be14" y="256.662"/>
      </g>
     </g>
     <g id="line2d_21">
      <g>
       <use style="fill:#555555;stroke:#555555;stroke-linecap:butt;stroke-width:0.5;" x="1106.46" xlink:href="#md8e084be14" y="256.662"/>
      </g>
     </g>
     <g id="text_8">
      <!-- 1500 -->
      <g style="fill:#555555;" transform="translate(123.9875 260.30184375)scale(0.1 -0.1)">
       <use xlink:href="#BitstreamVeraSans-Roman-31"/>
       <use x="63.623046875" xlink:href="#BitstreamVeraSans-Roman-35"/>
       <use x="127.24609375" xlink:href="#BitstreamVeraSans-Roman-30"/>
       <use x="190.869140625" xlink:href="#BitstreamVeraSans-Roman-30"/>
      </g>
     </g>
    </g>
    <g id="ytick_5">
     <g id="line2d_22">
      <path clip-path="url(#p32c9f7e71b)" d="
M153.675 158.886
L1106.46 158.886" style="fill:none;stroke:#000000;stroke-dasharray:1.000000,3.000000;stroke-dashoffset:0.0;stroke-linecap:butt;stroke-width:0.5;"/>
     </g>
     <g id="line2d_23">
      <g>
       <use style="fill:#555555;stroke:#555555;stroke-linecap:butt;stroke-width:0.5;" x="153.675" xlink:href="#md8e084be14" y="158.886"/>
      </g>
     </g>
     <g id="line2d_24">
      <g>
       <use style="fill:#555555;stroke:#555555;stroke-linecap:butt;stroke-width:0.5;" x="1106.46" xlink:href="#md8e084be14" y="158.886"/>
      </g>
     </g>
     <g id="text_9">
      <!-- 2000 -->
      <g style="fill:#555555;" transform="translate(123.621875 162.52584375)scale(0.1 -0.1)">
       <use xlink:href="#BitstreamVeraSans-Roman-32"/>
       <use x="63.623046875" xlink:href="#BitstreamVeraSans-Roman-30"/>
       <use x="127.24609375" xlink:href="#BitstreamVeraSans-Roman-30"/>
       <use x="190.869140625" xlink:href="#BitstreamVeraSans-Roman-30"/>
      </g>
     </g>
    </g>
    <g id="ytick_6">
     <g id="line2d_25">
      <path clip-path="url(#p32c9f7e71b)" d="
M153.675 61.11
L1106.46 61.11" style="fill:none;stroke:#000000;stroke-dasharray:1.000000,3.000000;stroke-dashoffset:0.0;stroke-linecap:butt;stroke-width:0.5;"/>
     </g>
     <g id="line2d_26">
      <g>
       <use style="fill:#555555;stroke:#555555;stroke-linecap:butt;stroke-width:0.5;" x="153.675" xlink:href="#md8e084be14" y="61.11"/>
      </g>
     </g>
     <g id="line2d_27">
      <g>
       <use style="fill:#555555;stroke:#555555;stroke-linecap:butt;stroke-width:0.5;" x="1106.46" xlink:href="#md8e084be14" y="61.11"/>
      </g>
     </g>
     <g id="text_10">
      <!-- 2500 -->
      <g style="fill:#555555;" transform="translate(123.621875 64.74984375)scale(0.1 -0.1)">
       <use xlink:href="#BitstreamVeraSans-Roman-32"/>
       <use x="63.623046875" xlink:href="#BitstreamVeraSans-Roman-35"/>
       <use x="127.24609375" xlink:href="#BitstreamVeraSans-Roman-30"/>
       <use x="190.869140625" xlink:href="#BitstreamVeraSans-Roman-30"/>
      </g>
     </g>
    </g>
    <g id="text_11">
     <!-- Número de URLs visitadas -->
     <defs>
      <path id="BitstreamVeraSans-Roman-20"/>
      <path d="
M9.8125 72.9062
L23.0938 72.9062
L55.4219 11.9219
L55.4219 72.9062
L64.9844 72.9062
L64.9844 0
L51.7031 0
L19.3906 60.9844
L19.3906 0
L9.8125 0
z
" id="BitstreamVeraSans-Roman-4e"/>
      <path d="
M9.8125 72.9062
L19.6719 72.9062
L19.6719 8.29688
L55.1719 8.29688
L55.1719 0
L9.8125 0
z
" id="BitstreamVeraSans-Roman-4c"/>
      <path d="
M44.3906 34.1875
Q47.5625 33.1094 50.5625 29.5938
Q53.5625 26.0781 56.5938 19.9219
L66.6094 0
L56 0
L46.6875 18.7031
Q43.0625 26.0312 39.6719 28.4219
Q36.2812 30.8125 30.4219 30.8125
L19.6719 30.8125
L19.6719 0
L9.8125 0
L9.8125 72.9062
L32.0781 72.9062
Q44.5781 72.9062 50.7344 67.6719
Q56.8906 62.4531 56.8906 51.9062
Q56.8906 45.0156 53.6875 40.4688
Q50.4844 35.9375 44.3906 34.1875
M19.6719 64.7969
L19.6719 38.9219
L32.0781 38.9219
Q39.2031 38.9219 42.8438 42.2188
Q46.4844 45.5156 46.4844 51.9062
Q46.4844 58.2969 42.8438 61.5469
Q39.2031 64.7969 32.0781 64.7969
z
" id="BitstreamVeraSans-Roman-52"/>
      <path d="
M8.6875 72.9062
L18.6094 72.9062
L18.6094 28.6094
Q18.6094 16.8906 22.8438 11.7344
Q27.0938 6.59375 36.625 6.59375
Q46.0938 6.59375 50.3438 11.7344
Q54.5938 16.8906 54.5938 28.6094
L54.5938 72.9062
L64.5 72.9062
L64.5 27.3906
Q64.5 13.1406 57.4375 5.85938
Q50.3906 -1.42188 36.625 -1.42188
Q22.7969 -1.42188 15.7344 5.85938
Q8.6875 13.1406 8.6875 27.3906
z
" id="BitstreamVeraSans-Roman-55"/>
      <path d="
M2.98438 54.6875
L12.5 54.6875
L29.5938 8.79688
L46.6875 54.6875
L56.2031 54.6875
L35.6875 0
L23.4844 0
z
" id="BitstreamVeraSans-Roman-76"/>
      <path d="
M45.4062 46.3906
L45.4062 75.9844
L54.3906 75.9844
L54.3906 0
L45.4062 0
L45.4062 8.20312
Q42.5781 3.32812 38.25 0.953125
Q33.9375 -1.42188 27.875 -1.42188
Q17.9688 -1.42188 11.7344 6.48438
Q5.51562 14.4062 5.51562 27.2969
Q5.51562 40.1875 11.7344 48.0938
Q17.9688 56 27.875 56
Q33.9375 56 38.25 53.625
Q42.5781 51.2656 45.4062 46.3906
M14.7969 27.2969
Q14.7969 17.3906 18.875 11.75
Q22.9531 6.10938 30.0781 6.10938
Q37.2031 6.10938 41.2969 11.75
Q45.4062 17.3906 45.4062 27.2969
Q45.4062 37.2031 41.2969 42.8438
Q37.2031 48.4844 30.0781 48.4844
Q22.9531 48.4844 18.875 42.8438
Q14.7969 37.2031 14.7969 27.2969" id="BitstreamVeraSans-Roman-64"/>
      <path d="
M18.3125 70.2188
L18.3125 54.6875
L36.8125 54.6875
L36.8125 47.7031
L18.3125 47.7031
L18.3125 18.0156
Q18.3125 11.3281 20.1406 9.42188
Q21.9688 7.51562 27.5938 7.51562
L36.8125 7.51562
L36.8125 0
L27.5938 0
Q17.1875 0 13.2344 3.875
Q9.28125 7.76562 9.28125 18.0156
L9.28125 47.7031
L2.6875 47.7031
L2.6875 54.6875
L9.28125 54.6875
L9.28125 70.2188
z
" id="BitstreamVeraSans-Roman-74"/>
      <path d="
M8.5 21.5781
L8.5 54.6875
L17.4844 54.6875
L17.4844 21.9219
Q17.4844 14.1562 20.5 10.2656
Q23.5312 6.39062 29.5938 6.39062
Q36.8594 6.39062 41.0781 11.0312
Q45.3125 15.6719 45.3125 23.6875
L45.3125 54.6875
L54.2969 54.6875
L54.2969 0
L45.3125 0
L45.3125 8.40625
Q42.0469 3.42188 37.7188 1
Q33.4062 -1.42188 27.6875 -1.42188
Q18.2656 -1.42188 13.375 4.4375
Q8.5 10.2969 8.5 21.5781
M37.7812 79.9844
L47.5 79.9844
L31.5938 61.625
L24.1094 61.625
z
" id="BitstreamVeraSans-Roman-fa"/>
      <path d="
M44.2812 53.0781
L44.2812 44.5781
Q40.4844 46.5312 36.375 47.5
Q32.2812 48.4844 27.875 48.4844
Q21.1875 48.4844 17.8438 46.4375
Q14.5 44.3906 14.5 40.2812
Q14.5 37.1562 16.8906 35.375
Q19.2812 33.5938 26.5156 31.9844
L29.5938 31.2969
Q39.1562 29.25 43.1875 25.5156
Q47.2188 21.7812 47.2188 15.0938
Q47.2188 7.46875 41.1875 3.01562
Q35.1562 -1.42188 24.6094 -1.42188
Q20.2188 -1.42188 15.4531 -0.5625
Q10.6875 0.296875 5.42188 2
L5.42188 11.2812
Q10.4062 8.6875 15.2344 7.39062
Q20.0625 6.10938 24.8125 6.10938
Q31.1562 6.10938 34.5625 8.28125
Q37.9844 10.4531 37.9844 14.4062
Q37.9844 18.0625 35.5156 20.0156
Q33.0625 21.9688 24.7031 23.7812
L21.5781 24.5156
Q13.2344 26.2656 9.51562 29.9062
Q5.8125 33.5469 5.8125 39.8906
Q5.8125 47.6094 11.2812 51.7969
Q16.75 56 26.8125 56
Q31.7812 56 36.1719 55.2656
Q40.5781 54.5469 44.2812 53.0781" id="BitstreamVeraSans-Roman-73"/>
     </defs>
     <g style="fill:#555555;" transform="translate(118.621875 383.8190625)rotate(-90.0)scale(0.12 -0.12)">
      <use xlink:href="#BitstreamVeraSans-Roman-4e"/>
      <use x="74.8046875" xlink:href="#BitstreamVeraSans-Roman-fa"/>
      <use x="138.18359375" xlink:href="#BitstreamVeraSans-Roman-6d"/>
      <use x="235.595703125" xlink:href="#BitstreamVeraSans-Roman-65"/>
      <use x="297.119140625" xlink:href="#BitstreamVeraSans-Roman-72"/>
      <use x="335.982421875" xlink:href="#BitstreamVeraSans-Roman-6f"/>
      <use x="397.1640625" xlink:href="#BitstreamVeraSans-Roman-20"/>
      <use x="428.951171875" xlink:href="#BitstreamVeraSans-Roman-64"/>
      <use x="492.427734375" xlink:href="#BitstreamVeraSans-Roman-65"/>
      <use x="553.951171875" xlink:href="#BitstreamVeraSans-Roman-20"/>
      <use x="585.73828125" xlink:href="#BitstreamVeraSans-Roman-55"/>
      <use x="658.931640625" xlink:href="#BitstreamVeraSans-Roman-52"/>
      <use x="728.4140625" xlink:href="#BitstreamVeraSans-Roman-4c"/>
      <use x="784.126953125" xlink:href="#BitstreamVeraSans-Roman-73"/>
      <use x="836.2265625" xlink:href="#BitstreamVeraSans-Roman-20"/>
      <use x="868.013671875" xlink:href="#BitstreamVeraSans-Roman-76"/>
      <use x="927.193359375" xlink:href="#BitstreamVeraSans-Roman-69"/>
      <use x="954.9765625" xlink:href="#BitstreamVeraSans-Roman-73"/>
      <use x="1007.07617188" xlink:href="#BitstreamVeraSans-Roman-69"/>
      <use x="1034.859375" xlink:href="#BitstreamVeraSans-Roman-74"/>
      <use x="1074.06835938" xlink:href="#BitstreamVeraSans-Roman-61"/>
      <use x="1135.34765625" xlink:href="#BitstreamVeraSans-Roman-64"/>
      <use x="1198.82421875" xlink:href="#BitstreamVeraSans-Roman-61"/>
      <use x="1260.10351562" xlink:href="#BitstreamVeraSans-Roman-73"/>
     </g>
    </g>
   </g>
   <g id="patch_3">
    <path clip-path="url(#p32c9f7e71b)" d="
M226.966 549.99
L251.397 549.99
L251.397 549.012
L226.966 549.012
z
" style="fill:#7fc97f;stroke:#eeeeee;stroke-width:0.5;"/>
   </g>
   <g id="patch_4">
    <path clip-path="url(#p32c9f7e71b)" d="
M520.131 549.99
L544.561 549.99
L544.561 544.515
L520.131 544.515
z
" style="fill:#7fc97f;stroke:#eeeeee;stroke-width:0.5;"/>
   </g>
   <g id="patch_5">
    <path clip-path="url(#p32c9f7e71b)" d="
M813.295 549.99
L837.726 549.99
L837.726 549.599
L813.295 549.599
z
" style="fill:#7fc97f;stroke:#eeeeee;stroke-width:0.5;"/>
   </g>
   <g id="patch_6">
    <path clip-path="url(#p32c9f7e71b)" d="
M251.397 549.99
L275.827 549.99
L275.827 509.706
L251.397 509.706
z
" style="fill:#b6b1ca;stroke:#eeeeee;stroke-width:0.5;"/>
   </g>
   <g id="patch_7">
    <path clip-path="url(#p32c9f7e71b)" d="
M544.561 549.99
L568.992 549.99
L568.992 517.724
L544.561 517.724
z
" style="fill:#b6b1ca;stroke:#eeeeee;stroke-width:0.5;"/>
   </g>
   <g id="patch_8">
    <path clip-path="url(#p32c9f7e71b)" d="
M837.726 549.99
L862.156 549.99
L862.156 512.248
L837.726 512.248
z
" style="fill:#b6b1ca;stroke:#eeeeee;stroke-width:0.5;"/>
   </g>
   <g id="patch_9">
    <path clip-path="url(#p32c9f7e71b)" d="
M275.827 549.99
L300.257 549.99
L300.257 547.057
L275.827 547.057
z
" style="fill:#eebc99;stroke:#eeeeee;stroke-width:0.5;"/>
   </g>
   <g id="patch_10">
    <path clip-path="url(#p32c9f7e71b)" d="
M568.992 549.99
L593.422 549.99
L593.422 546.275
L568.992 546.275
z
" style="fill:#eebc99;stroke:#eeeeee;stroke-width:0.5;"/>
   </g>
   <g id="patch_11">
    <path clip-path="url(#p32c9f7e71b)" d="
M862.156 549.99
L886.587 549.99
L886.587 549.208
L862.156 549.208
z
" style="fill:#eebc99;stroke:#eeeeee;stroke-width:0.5;"/>
   </g>
   <g id="patch_12">
    <path clip-path="url(#p32c9f7e71b)" d="
M300.257 549.99
L324.688 549.99
L324.688 440.481
L300.257 440.481
z
" style="fill:#fee892;stroke:#eeeeee;stroke-width:0.5;"/>
   </g>
   <g id="patch_13">
    <path clip-path="url(#p32c9f7e71b)" d="
M593.422 549.99
L617.852 549.99
L617.852 406.064
L593.422 406.064
z
" style="fill:#fee892;stroke:#eeeeee;stroke-width:0.5;"/>
   </g>
   <g id="patch_14">
    <path clip-path="url(#p32c9f7e71b)" d="
M886.587 549.99
L911.017 549.99
L911.017 467.076
L886.587 467.076
z
" style="fill:#fee892;stroke:#eeeeee;stroke-width:0.5;"/>
   </g>
   <g id="patch_15">
    <path clip-path="url(#p32c9f7e71b)" d="
M324.688 549.99
L349.118 549.99
L349.118 486.827
L324.688 486.827
z
" style="fill:#99b3a5;stroke:#eeeeee;stroke-width:0.5;"/>
   </g>
   <g id="patch_16">
    <path clip-path="url(#p32c9f7e71b)" d="
M617.852 549.99
L642.283 549.99
L642.283 64.4344
L617.852 64.4344
z
" style="fill:#99b3a5;stroke:#eeeeee;stroke-width:0.5;"/>
   </g>
   <g id="patch_17">
    <path clip-path="url(#p32c9f7e71b)" d="
M911.017 549.99
L935.447 549.99
L935.447 472.943
L911.017 472.943
z
" style="fill:#99b3a5;stroke:#eeeeee;stroke-width:0.5;"/>
   </g>
   <g id="patch_18">
    <path clip-path="url(#p32c9f7e71b)" d="
z
" style="fill:#80429d;stroke:#eeeeee;stroke-width:0.5;"/>
   </g>
   <g id="patch_19">
    <path clip-path="url(#p32c9f7e71b)" d="
M642.283 549.99
L666.713 549.99
L666.713 540.212
L642.283 540.212
z
" style="fill:#80429d;stroke:#eeeeee;stroke-width:0.5;"/>
   </g>
   <g id="patch_20">
    <path clip-path="url(#p32c9f7e71b)" d="
z
" style="fill:#80429d;stroke:#eeeeee;stroke-width:0.5;"/>
   </g>
   <g id="patch_21">
    <path clip-path="url(#p32c9f7e71b)" d="
M373.548 549.99
L397.979 549.99
L397.979 534.932
L373.548 534.932
z
" style="fill:#e31a63;stroke:#eeeeee;stroke-width:0.5;"/>
   </g>
   <g id="patch_22">
    <path clip-path="url(#p32c9f7e71b)" d="
M666.713 549.99
L691.143 549.99
L691.143 538.257
L666.713 538.257
z
" style="fill:#e31a63;stroke:#eeeeee;stroke-width:0.5;"/>
   </g>
   <g id="patch_23">
    <path clip-path="url(#p32c9f7e71b)" d="
M959.878 549.99
L984.308 549.99
L984.308 547.057
L959.878 547.057
z
" style="fill:#e31a63;stroke:#eeeeee;stroke-width:0.5;"/>
   </g>
   <g id="patch_24">
    <path clip-path="url(#p32c9f7e71b)" d="
M397.979 549.99
L422.409 549.99
L422.409 546.47
L397.979 546.47
z
" style="fill:#b25d23;stroke:#eeeeee;stroke-width:0.5;"/>
   </g>
   <g id="patch_25">
    <path clip-path="url(#p32c9f7e71b)" d="
M691.143 549.99
L715.574 549.99
L715.574 535.715
L691.143 535.715
z
" style="fill:#b25d23;stroke:#eeeeee;stroke-width:0.5;"/>
   </g>
   <g id="patch_26">
    <path clip-path="url(#p32c9f7e71b)" d="
M984.308 549.99
L1008.74 549.99
L1008.74 548.23
L984.308 548.23
z
" style="fill:#b25d23;stroke:#eeeeee;stroke-width:0.5;"/>
   </g>
   <g id="patch_27">
    <path clip-path="url(#p32c9f7e71b)" d="
M422.409 549.99
L446.84 549.99
L446.84 158.104
L422.409 158.104
z
" style="fill:#666666;stroke:#eeeeee;stroke-width:0.5;"/>
   </g>
   <g id="patch_28">
    <path clip-path="url(#p32c9f7e71b)" d="
M715.574 549.99
L740.004 549.99
L740.004 128.967
L715.574 128.967
z
" style="fill:#666666;stroke:#eeeeee;stroke-width:0.5;"/>
   </g>
   <g id="patch_29">
    <path clip-path="url(#p32c9f7e71b)" d="
M1008.74 549.99
L1033.17 549.99
L1033.17 202.885
L1008.74 202.885
z
" style="fill:#666666;stroke:#eeeeee;stroke-width:0.5;"/>
   </g>
   <g id="line2d_28">
    <path clip-path="url(#p32c9f7e71b)" d="
M153.675 549.99
L1106.46 549.99" style="fill:none;stroke:#000000;stroke-dasharray:6.000000,6.000000;stroke-dashoffset:0.0;stroke-linecap:butt;"/>
   </g>
   <g id="patch_30">
    <path d="
M153.675 61.11
L1106.46 61.11" style="fill:none;stroke:#bcbcbc;"/>
   </g>
   <g id="patch_31">
    <path d="
M1106.46 549.99
L1106.46 61.11" style="fill:none;stroke:#bcbcbc;"/>
   </g>
   <g id="patch_32">
    <path d="
M153.675 549.99
L1106.46 549.99" style="fill:none;stroke:#bcbcbc;"/>
   </g>
   <g id="patch_33">
    <path d="
M153.675 549.99
L153.675 61.11" style="fill:none;stroke:#bcbcbc;"/>
   </g>
   <g id="text_12">
    <!-- SERIES: Top 10 por mes, tipo de usuario -->
    <defs>
     <path d="
M11.7188 12.4062
L22.0156 12.4062
L22.0156 4
L14.0156 -11.625
L7.71875 -11.625
L11.7188 4
z
" id="BitstreamVeraSans-Roman-2c"/>
     <path d="
M9.8125 72.9062
L55.9062 72.9062
L55.9062 64.5938
L19.6719 64.5938
L19.6719 43.0156
L54.3906 43.0156
L54.3906 34.7188
L19.6719 34.7188
L19.6719 8.29688
L56.7812 8.29688
L56.7812 0
L9.8125 0
z
" id="BitstreamVeraSans-Roman-45"/>
     <path d="
M11.7188 12.4062
L22.0156 12.4062
L22.0156 0
L11.7188 0
z

M11.7188 51.7031
L22.0156 51.7031
L22.0156 39.3125
L11.7188 39.3125
z
" id="BitstreamVeraSans-Roman-3a"/>
     <path d="
M-0.296875 72.9062
L61.375 72.9062
L61.375 64.5938
L35.5 64.5938
L35.5 0
L25.5938 0
L25.5938 64.5938
L-0.296875 64.5938
z
" id="BitstreamVeraSans-Roman-54"/>
     <path d="
M18.1094 8.20312
L18.1094 -20.7969
L9.07812 -20.7969
L9.07812 54.6875
L18.1094 54.6875
L18.1094 46.3906
Q20.9531 51.2656 25.2656 53.625
Q29.5938 56 35.5938 56
Q45.5625 56 51.7812 48.0938
Q58.0156 40.1875 58.0156 27.2969
Q58.0156 14.4062 51.7812 6.48438
Q45.5625 -1.42188 35.5938 -1.42188
Q29.5938 -1.42188 25.2656 0.953125
Q20.9531 3.32812 18.1094 8.20312
M48.6875 27.2969
Q48.6875 37.2031 44.6094 42.8438
Q40.5312 48.4844 33.4062 48.4844
Q26.2656 48.4844 22.1875 42.8438
Q18.1094 37.2031 18.1094 27.2969
Q18.1094 17.3906 22.1875 11.75
Q26.2656 6.10938 33.4062 6.10938
Q40.5312 6.10938 44.6094 11.75
Q48.6875 17.3906 48.6875 27.2969" id="BitstreamVeraSans-Roman-70"/>
     <path d="
M9.8125 72.9062
L19.6719 72.9062
L19.6719 0
L9.8125 0
z
" id="BitstreamVeraSans-Roman-49"/>
     <path d="
M53.5156 70.5156
L53.5156 60.8906
Q47.9062 63.5781 42.9219 64.8906
Q37.9375 66.2188 33.2969 66.2188
Q25.25 66.2188 20.875 63.0938
Q16.5 59.9688 16.5 54.2031
Q16.5 49.3594 19.4062 46.8906
Q22.3125 44.4375 30.4219 42.9219
L36.375 41.7031
Q47.4062 39.5938 52.6562 34.2969
Q57.9062 29 57.9062 20.125
Q57.9062 9.51562 50.7969 4.04688
Q43.7031 -1.42188 29.9844 -1.42188
Q24.8125 -1.42188 18.9688 -0.25
Q13.1406 0.921875 6.89062 3.21875
L6.89062 13.375
Q12.8906 10.0156 18.6562 8.29688
Q24.4219 6.59375 29.9844 6.59375
Q38.4219 6.59375 43.0156 9.90625
Q47.6094 13.2344 47.6094 19.3906
Q47.6094 24.75 44.3125 27.7812
Q41.0156 30.8125 33.5 32.3281
L27.4844 33.5
Q16.4531 35.6875 11.5156 40.375
Q6.59375 45.0625 6.59375 53.4219
Q6.59375 63.0938 13.4062 68.6562
Q20.2188 74.2188 32.1719 74.2188
Q37.3125 74.2188 42.625 73.2812
Q47.9531 72.3594 53.5156 70.5156" id="BitstreamVeraSans-Roman-53"/>
    </defs>
    <g transform="translate(486.464625 56.11)scale(0.144 -0.144)">
     <use xlink:href="#BitstreamVeraSans-Roman-53"/>
     <use x="63.4765625" xlink:href="#BitstreamVeraSans-Roman-45"/>
     <use x="126.66015625" xlink:href="#BitstreamVeraSans-Roman-52"/>
     <use x="196.142578125" xlink:href="#BitstreamVeraSans-Roman-49"/>
     <use x="225.634765625" xlink:href="#BitstreamVeraSans-Roman-45"/>
     <use x="288.818359375" xlink:href="#BitstreamVeraSans-Roman-53"/>
     <use x="352.294921875" xlink:href="#BitstreamVeraSans-Roman-3a"/>
     <use x="385.986328125" xlink:href="#BitstreamVeraSans-Roman-20"/>
     <use x="417.7734375" xlink:href="#BitstreamVeraSans-Roman-54"/>
     <use x="461.857421875" xlink:href="#BitstreamVeraSans-Roman-6f"/>
     <use x="523.0390625" xlink:href="#BitstreamVeraSans-Roman-70"/>
     <use x="586.515625" xlink:href="#BitstreamVeraSans-Roman-20"/>
     <use x="618.302734375" xlink:href="#BitstreamVeraSans-Roman-31"/>
     <use x="681.92578125" xlink:href="#BitstreamVeraSans-Roman-30"/>
     <use x="745.548828125" xlink:href="#BitstreamVeraSans-Roman-20"/>
     <use x="777.3359375" xlink:href="#BitstreamVeraSans-Roman-70"/>
     <use x="840.8125" xlink:href="#BitstreamVeraSans-Roman-6f"/>
     <use x="901.994140625" xlink:href="#BitstreamVeraSans-Roman-72"/>
     <use x="943.107421875" xlink:href="#BitstreamVeraSans-Roman-20"/>
     <use x="974.89453125" xlink:href="#BitstreamVeraSans-Roman-6d"/>
     <use x="1072.30664062" xlink:href="#BitstreamVeraSans-Roman-65"/>
     <use x="1133.83007812" xlink:href="#BitstreamVeraSans-Roman-73"/>
     <use x="1185.9296875" xlink:href="#BitstreamVeraSans-Roman-2c"/>
     <use x="1217.71679688" xlink:href="#BitstreamVeraSans-Roman-20"/>
     <use x="1249.50390625" xlink:href="#BitstreamVeraSans-Roman-74"/>
     <use x="1288.71289062" xlink:href="#BitstreamVeraSans-Roman-69"/>
     <use x="1316.49609375" xlink:href="#BitstreamVeraSans-Roman-70"/>
     <use x="1379.97265625" xlink:href="#BitstreamVeraSans-Roman-6f"/>
     <use x="1441.15429688" xlink:href="#BitstreamVeraSans-Roman-20"/>
     <use x="1472.94140625" xlink:href="#BitstreamVeraSans-Roman-64"/>
     <use x="1536.41796875" xlink:href="#BitstreamVeraSans-Roman-65"/>
     <use x="1597.94140625" xlink:href="#BitstreamVeraSans-Roman-20"/>
     <use x="1629.72851562" xlink:href="#BitstreamVeraSans-Roman-75"/>
     <use x="1693.10742188" xlink:href="#BitstreamVeraSans-Roman-73"/>
     <use x="1745.20703125" xlink:href="#BitstreamVeraSans-Roman-75"/>
     <use x="1808.5859375" xlink:href="#BitstreamVeraSans-Roman-61"/>
     <use x="1869.86523438" xlink:href="#BitstreamVeraSans-Roman-72"/>
     <use x="1910.97851562" xlink:href="#BitstreamVeraSans-Roman-69"/>
     <use x="1938.76171875" xlink:href="#BitstreamVeraSans-Roman-6f"/>
    </g>
   </g>
   <g id="legend_1">
    <g id="patch_34">
     <path d="
M162.075 226.909
L321.343 226.909
Q323.743 226.909 323.743 224.509
L323.743 69.51
Q323.743 67.11 321.343 67.11
L162.075 67.11
Q159.675 67.11 159.675 69.51
L159.675 224.509
Q159.675 226.909 162.075 226.909
z
" style="fill:#eeeeee;stroke:#bcbcbc;stroke-width:0.5;"/>
    </g>
    <g id="patch_35">
     <path d="
M164.475 81.0281
L188.475 81.0281
L188.475 72.6281
L164.475 72.6281
z
" style="fill:#7fc97f;stroke:#eeeeee;stroke-width:0.5;"/>
    </g>
    <g id="text_13">
     <!-- AYTOSANTANDER -->
     <defs>
      <path d="
M-0.203125 72.9062
L10.4062 72.9062
L30.6094 42.9219
L50.6875 72.9062
L61.2812 72.9062
L35.5 34.7188
L35.5 0
L25.5938 0
L25.5938 34.7188
z
" id="BitstreamVeraSans-Roman-59"/>
      <path d="
M34.1875 63.1875
L20.7969 26.9062
L47.6094 26.9062
z

M28.6094 72.9062
L39.7969 72.9062
L67.5781 0
L57.3281 0
L50.6875 18.7031
L17.8281 18.7031
L11.1875 0
L0.78125 0
z
" id="BitstreamVeraSans-Roman-41"/>
      <path d="
M39.4062 66.2188
Q28.6562 66.2188 22.3281 58.2031
Q16.0156 50.2031 16.0156 36.375
Q16.0156 22.6094 22.3281 14.5938
Q28.6562 6.59375 39.4062 6.59375
Q50.1406 6.59375 56.4219 14.5938
Q62.7031 22.6094 62.7031 36.375
Q62.7031 50.2031 56.4219 58.2031
Q50.1406 66.2188 39.4062 66.2188
M39.4062 74.2188
Q54.7344 74.2188 63.9062 63.9375
Q73.0938 53.6562 73.0938 36.375
Q73.0938 19.1406 63.9062 8.85938
Q54.7344 -1.42188 39.4062 -1.42188
Q24.0312 -1.42188 14.8125 8.82812
Q5.60938 19.0938 5.60938 36.375
Q5.60938 53.6562 14.8125 63.9375
Q24.0312 74.2188 39.4062 74.2188" id="BitstreamVeraSans-Roman-4f"/>
     </defs>
     <g transform="translate(198.075 81.028125)scale(0.12 -0.12)">
      <use xlink:href="#BitstreamVeraSans-Roman-41"/>
      <use x="60.658203125" xlink:href="#BitstreamVeraSans-Roman-59"/>
      <use x="121.7421875" xlink:href="#BitstreamVeraSans-Roman-54"/>
      <use x="182.826171875" xlink:href="#BitstreamVeraSans-Roman-4f"/>
      <use x="261.537109375" xlink:href="#BitstreamVeraSans-Roman-53"/>
      <use x="326.888671875" xlink:href="#BitstreamVeraSans-Roman-41"/>
      <use x="395.296875" xlink:href="#BitstreamVeraSans-Roman-4e"/>
      <use x="470.1015625" xlink:href="#BitstreamVeraSans-Roman-54"/>
      <use x="523.435546875" xlink:href="#BitstreamVeraSans-Roman-41"/>
      <use x="591.84375" xlink:href="#BitstreamVeraSans-Roman-4e"/>
      <use x="666.6484375" xlink:href="#BitstreamVeraSans-Roman-44"/>
      <use x="743.650390625" xlink:href="#BitstreamVeraSans-Roman-45"/>
      <use x="806.833984375" xlink:href="#BitstreamVeraSans-Roman-52"/>
     </g>
    </g>
    <g id="patch_36">
     <path d="
M164.475 98.6419
L188.475 98.6419
L188.475 90.2419
L164.475 90.2419
z
" style="fill:#b6b1ca;stroke:#eeeeee;stroke-width:0.5;"/>
    </g>
    <g id="text_14">
     <!-- Gobierno -->
     <defs>
      <path d="
M59.5156 10.4062
L59.5156 29.9844
L43.4062 29.9844
L43.4062 38.0938
L69.2812 38.0938
L69.2812 6.78125
Q63.5781 2.73438 56.6875 0.65625
Q49.8125 -1.42188 42 -1.42188
Q24.9062 -1.42188 15.25 8.5625
Q5.60938 18.5625 5.60938 36.375
Q5.60938 54.25 15.25 64.2344
Q24.9062 74.2188 42 74.2188
Q49.125 74.2188 55.5469 72.4531
Q61.9688 70.7031 67.3906 67.2812
L67.3906 56.7812
Q61.9219 61.4219 55.7656 63.7656
Q49.6094 66.1094 42.8281 66.1094
Q29.4375 66.1094 22.7188 58.6406
Q16.0156 51.1719 16.0156 36.375
Q16.0156 21.625 22.7188 14.1562
Q29.4375 6.6875 42.8281 6.6875
Q48.0469 6.6875 52.1406 7.59375
Q56.25 8.5 59.5156 10.4062" id="BitstreamVeraSans-Roman-47"/>
     </defs>
     <g transform="translate(198.075 98.641875)scale(0.12 -0.12)">
      <use xlink:href="#BitstreamVeraSans-Roman-47"/>
      <use x="77.490234375" xlink:href="#BitstreamVeraSans-Roman-6f"/>
      <use x="138.671875" xlink:href="#BitstreamVeraSans-Roman-62"/>
      <use x="202.1484375" xlink:href="#BitstreamVeraSans-Roman-69"/>
      <use x="229.931640625" xlink:href="#BitstreamVeraSans-Roman-65"/>
      <use x="291.455078125" xlink:href="#BitstreamVeraSans-Roman-72"/>
      <use x="330.818359375" xlink:href="#BitstreamVeraSans-Roman-6e"/>
      <use x="394.197265625" xlink:href="#BitstreamVeraSans-Roman-6f"/>
     </g>
    </g>
    <g id="patch_37">
     <path d="
M164.475 116.256
L188.475 116.256
L188.475 107.856
L164.475 107.856
z
" style="fill:#eebc99;stroke:#eeeeee;stroke-width:0.5;"/>
    </g>
    <g id="text_15">
     <!-- INE -->
     <g transform="translate(198.075 116.255625)scale(0.12 -0.12)">
      <use xlink:href="#BitstreamVeraSans-Roman-49"/>
      <use x="29.4921875" xlink:href="#BitstreamVeraSans-Roman-4e"/>
      <use x="104.296875" xlink:href="#BitstreamVeraSans-Roman-45"/>
     </g>
    </g>
    <g id="patch_38">
     <path d="
M164.475 133.869
L188.475 133.869
L188.475 125.469
L164.475 125.469
z
" style="fill:#fee892;stroke:#eeeeee;stroke-width:0.5;"/>
    </g>
    <g id="text_16">
     <!-- Icane -->
     <g transform="translate(198.075 133.869375)scale(0.12 -0.12)">
      <use xlink:href="#BitstreamVeraSans-Roman-49"/>
      <use x="29.4921875" xlink:href="#BitstreamVeraSans-Roman-63"/>
      <use x="84.47265625" xlink:href="#BitstreamVeraSans-Roman-61"/>
      <use x="145.751953125" xlink:href="#BitstreamVeraSans-Roman-6e"/>
      <use x="209.130859375" xlink:href="#BitstreamVeraSans-Roman-65"/>
     </g>
    </g>
    <g id="patch_39">
     <path d="
M164.475 151.483
L188.475 151.483
L188.475 143.083
L164.475 143.083
z
" style="fill:#99b3a5;stroke:#eeeeee;stroke-width:0.5;"/>
    </g>
    <g id="text_17">
     <!-- Info ICANE -->
     <defs>
      <path d="
M37.1094 75.9844
L37.1094 68.5
L28.5156 68.5
Q23.6875 68.5 21.7969 66.5469
Q19.9219 64.5938 19.9219 59.5156
L19.9219 54.6875
L34.7188 54.6875
L34.7188 47.7031
L19.9219 47.7031
L19.9219 0
L10.8906 0
L10.8906 47.7031
L2.29688 47.7031
L2.29688 54.6875
L10.8906 54.6875
L10.8906 58.5
Q10.8906 67.625 15.1406 71.7969
Q19.3906 75.9844 28.6094 75.9844
z
" id="BitstreamVeraSans-Roman-66"/>
      <path d="
M64.4062 67.2812
L64.4062 56.8906
Q59.4219 61.5312 53.7812 63.8125
Q48.1406 66.1094 41.7969 66.1094
Q29.2969 66.1094 22.6562 58.4688
Q16.0156 50.8281 16.0156 36.375
Q16.0156 21.9688 22.6562 14.3281
Q29.2969 6.6875 41.7969 6.6875
Q48.1406 6.6875 53.7812 8.98438
Q59.4219 11.2812 64.4062 15.9219
L64.4062 5.60938
Q59.2344 2.09375 53.4375 0.328125
Q47.6562 -1.42188 41.2188 -1.42188
Q24.6562 -1.42188 15.125 8.70312
Q5.60938 18.8438 5.60938 36.375
Q5.60938 53.9531 15.125 64.0781
Q24.6562 74.2188 41.2188 74.2188
Q47.75 74.2188 53.5312 72.4844
Q59.3281 70.75 64.4062 67.2812" id="BitstreamVeraSans-Roman-43"/>
     </defs>
     <g transform="translate(198.075 151.483125)scale(0.12 -0.12)">
      <use xlink:href="#BitstreamVeraSans-Roman-49"/>
      <use x="29.4921875" xlink:href="#BitstreamVeraSans-Roman-6e"/>
      <use x="92.87109375" xlink:href="#BitstreamVeraSans-Roman-66"/>
      <use x="128.076171875" xlink:href="#BitstreamVeraSans-Roman-6f"/>
      <use x="189.2578125" xlink:href="#BitstreamVeraSans-Roman-20"/>
      <use x="221.044921875" xlink:href="#BitstreamVeraSans-Roman-49"/>
      <use x="250.537109375" xlink:href="#BitstreamVeraSans-Roman-43"/>
      <use x="320.361328125" xlink:href="#BitstreamVeraSans-Roman-41"/>
      <use x="388.76953125" xlink:href="#BitstreamVeraSans-Roman-4e"/>
      <use x="463.57421875" xlink:href="#BitstreamVeraSans-Roman-45"/>
     </g>
    </g>
    <g id="patch_40">
     <path d="
M164.475 169.097
L188.475 169.097
L188.475 160.697
L164.475 160.697
z
" style="fill:#80429d;stroke:#eeeeee;stroke-width:0.5;"/>
    </g>
    <g id="text_18">
     <!-- Otras Universidades -->
     <g transform="translate(198.075 169.096875)scale(0.12 -0.12)">
      <use xlink:href="#BitstreamVeraSans-Roman-4f"/>
      <use x="78.7109375" xlink:href="#BitstreamVeraSans-Roman-74"/>
      <use x="117.919921875" xlink:href="#BitstreamVeraSans-Roman-72"/>
      <use x="159.033203125" xlink:href="#BitstreamVeraSans-Roman-61"/>
      <use x="220.3125" xlink:href="#BitstreamVeraSans-Roman-73"/>
      <use x="272.412109375" xlink:href="#BitstreamVeraSans-Roman-20"/>
      <use x="304.19921875" xlink:href="#BitstreamVeraSans-Roman-55"/>
      <use x="377.392578125" xlink:href="#BitstreamVeraSans-Roman-6e"/>
      <use x="440.771484375" xlink:href="#BitstreamVeraSans-Roman-69"/>
      <use x="468.5546875" xlink:href="#BitstreamVeraSans-Roman-76"/>
      <use x="527.734375" xlink:href="#BitstreamVeraSans-Roman-65"/>
      <use x="589.2578125" xlink:href="#BitstreamVeraSans-Roman-72"/>
      <use x="630.37109375" xlink:href="#BitstreamVeraSans-Roman-73"/>
      <use x="682.470703125" xlink:href="#BitstreamVeraSans-Roman-69"/>
      <use x="710.25390625" xlink:href="#BitstreamVeraSans-Roman-64"/>
      <use x="773.73046875" xlink:href="#BitstreamVeraSans-Roman-61"/>
      <use x="835.009765625" xlink:href="#BitstreamVeraSans-Roman-64"/>
      <use x="898.486328125" xlink:href="#BitstreamVeraSans-Roman-65"/>
      <use x="960.009765625" xlink:href="#BitstreamVeraSans-Roman-73"/>
     </g>
    </g>
    <g id="patch_41">
     <path d="
M164.475 186.711
L188.475 186.711
L188.475 178.311
L164.475 178.311
z
" style="fill:#e31a63;stroke:#eeeeee;stroke-width:0.5;"/>
    </g>
    <g id="text_19">
     <!-- Prensa -->
     <defs>
      <path d="
M19.6719 64.7969
L19.6719 37.4062
L32.0781 37.4062
Q38.9688 37.4062 42.7188 40.9688
Q46.4844 44.5312 46.4844 51.125
Q46.4844 57.6719 42.7188 61.2344
Q38.9688 64.7969 32.0781 64.7969
z

M9.8125 72.9062
L32.0781 72.9062
Q44.3438 72.9062 50.6094 67.3594
Q56.8906 61.8125 56.8906 51.125
Q56.8906 40.3281 50.6094 34.8125
Q44.3438 29.2969 32.0781 29.2969
L19.6719 29.2969
L19.6719 0
L9.8125 0
z
" id="BitstreamVeraSans-Roman-50"/>
     </defs>
     <g transform="translate(198.075 186.710625)scale(0.12 -0.12)">
      <use xlink:href="#BitstreamVeraSans-Roman-50"/>
      <use x="58.552734375" xlink:href="#BitstreamVeraSans-Roman-72"/>
      <use x="97.416015625" xlink:href="#BitstreamVeraSans-Roman-65"/>
      <use x="158.939453125" xlink:href="#BitstreamVeraSans-Roman-6e"/>
      <use x="222.318359375" xlink:href="#BitstreamVeraSans-Roman-73"/>
      <use x="274.41796875" xlink:href="#BitstreamVeraSans-Roman-61"/>
     </g>
    </g>
    <g id="patch_42">
     <path d="
M164.475 204.324
L188.475 204.324
L188.475 195.924
L164.475 195.924
z
" style="fill:#b25d23;stroke:#eeeeee;stroke-width:0.5;"/>
    </g>
    <g id="text_20">
     <!-- Unican -->
     <g transform="translate(198.075 204.324375)scale(0.12 -0.12)">
      <use xlink:href="#BitstreamVeraSans-Roman-55"/>
      <use x="73.193359375" xlink:href="#BitstreamVeraSans-Roman-6e"/>
      <use x="136.572265625" xlink:href="#BitstreamVeraSans-Roman-69"/>
      <use x="164.35546875" xlink:href="#BitstreamVeraSans-Roman-63"/>
      <use x="219.3359375" xlink:href="#BitstreamVeraSans-Roman-61"/>
      <use x="280.615234375" xlink:href="#BitstreamVeraSans-Roman-6e"/>
     </g>
    </g>
    <g id="patch_43">
     <path d="
M164.475 221.938
L188.475 221.938
L188.475 213.538
L164.475 213.538
z
" style="fill:#666666;stroke:#eeeeee;stroke-width:0.5;"/>
    </g>
    <g id="text_21">
     <!-- Users -->
     <g transform="translate(198.075 221.938125)scale(0.12 -0.12)">
      <use xlink:href="#BitstreamVeraSans-Roman-55"/>
      <use x="73.193359375" xlink:href="#BitstreamVeraSans-Roman-73"/>
      <use x="125.29296875" xlink:href="#BitstreamVeraSans-Roman-65"/>
      <use x="186.81640625" xlink:href="#BitstreamVeraSans-Roman-72"/>
      <use x="227.9296875" xlink:href="#BitstreamVeraSans-Roman-73"/>
     </g>
    </g>
   </g>
  </g>
 </g>
 <defs>
  <clipPath id="p32c9f7e71b">
   <rect height="488.88" width="952.785" x="153.675" y="61.11"/>
  </clipPath>
 </defs>
</svg>
